<?xml version="1.0" encoding="UTF-8" standalone="no"?>
<svg width="203px" height="64px" viewBox="0 0 203 64" version="1.1" xmlns="http://www.w3.org/2000/svg" xmlns:xlink="http://www.w3.org/1999/xlink">
    <!-- Generator: Sketch 50.2 (55047) - http://www.bohemiancoding.com/sketch -->
    <title>Fill-1</title>
    <desc>Created with Sketch.</desc>
    <defs></defs>
    <g id="Page-1" stroke="none" stroke-width="1" fill="none" fill-rule="evenodd">
        <g id="Fill-1" fill-rule="nonzero">
            <polyline fill="#4BB061" points="86.112 51.216 86.112 64 193.041455 64 197.237818 51.216 86.112 51.216"></polyline>
            <path d="M95.6116364,58.3578182 L97.0836364,58.3578182 L96.3476364,55.9418182 L95.6116364,58.3578182 Z M97.4516364,59.552 L95.2436364,59.552 L94.736,61.1912727 L93.344,61.1912727 L95.7003636,54.2312727 L96.9934545,54.2312727 L99.3498182,61.1912727 L97.9578182,61.1912727 L97.4516364,59.552 Z" id="Fill-3" fill="#FFFFFE"></path>
            <polyline id="Fill-4" fill="#FFFFFE" points="105.429818 54.2312727 105.429818 61.1912727 104.068364 61.1912727 101.512727 56.5978182 101.512727 61.1912727 100.219636 61.1912727 100.219636 54.2312727 101.582545 54.2312727 104.138182 58.8261818 104.138182 54.2312727 105.429818 54.2312727"></polyline>
            <path d="M111.117091,58.3578182 L112.587636,58.3578182 L111.851636,55.9418182 L111.117091,58.3578182 Z M112.955636,59.552 L110.749091,59.552 L110.241455,61.1912727 L108.849455,61.1912727 L111.205818,54.2312727 L112.498909,54.2312727 L114.855273,61.1912727 L113.463273,61.1912727 L112.955636,59.552 Z" id="Fill-5" fill="#FFFFFE"></path>
            <polyline id="Fill-6" fill="#FFFFFE" points="116.759273 61.1912727 114.423273 54.2312727 115.854545 54.2312727 117.416727 59.3818182 118.977455 54.2312727 120.408727 54.2312727 118.072727 61.1912727 116.759273 61.1912727"></polyline>
            <polyline id="Fill-7" fill="#FFFFFE" points="126.379636 54.2312727 126.379636 61.1912727 125.016727 61.1912727 122.461091 56.5978182 122.461091 61.1912727 121.169455 61.1912727 121.169455 54.2312727 122.530909 54.2312727 125.086545 58.8261818 125.086545 54.2312727 126.379636 54.2312727"></polyline>
            <polyline id="Fill-8" fill="#FFFFFE" points="132.113455 54.2312727 132.113455 55.4254545 129.101091 55.4254545 129.101091 56.8872727 131.517091 56.8872727 131.517091 58.08 129.101091 58.08 129.101091 59.9985455 132.212364 59.9985455 132.212364 61.1912727 127.808 61.1912727 127.808 54.2312727 132.113455 54.2312727"></polyline>
            <polyline id="Fill-9" fill="#FFFFFE" points="133.182545 54.2312727 138.333091 54.2312727 138.333091 55.4254545 136.404364 55.4254545 136.404364 61.1912727 135.112727 61.1912727 135.112727 55.4254545 133.182545 55.4254545 133.182545 54.2312727"></polyline>
            <path d="M146.373818,56.5585455 C146.104727,55.8530909 145.617455,55.3454545 144.653091,55.3454545 C143.579636,55.3454545 142.674909,56.1003636 142.674909,57.712 C142.674909,59.3221818 143.579636,60.0785455 144.653091,60.0785455 C145.617455,60.0785455 146.104727,59.5709091 146.373818,58.8654545 L147.537455,59.1636364 C147.208727,60.496 146.164364,61.2712727 144.653091,61.2712727 C142.913455,61.2712727 141.362909,60.0378182 141.362909,57.712 C141.362909,55.3847273 142.913455,54.1527273 144.653091,54.1527273 C146.164364,54.1527273 147.208727,54.928 147.537455,56.2603636 L146.373818,56.5585455" id="Fill-10" fill="#FFFFFE"></path>
            <path d="M149.780364,57.712 C149.780364,59.3629091 150.704,60.0785455 151.748364,60.0785455 C152.792727,60.0785455 153.717818,59.3629091 153.717818,57.712 C153.717818,56.0610909 152.792727,55.3454545 151.748364,55.3454545 C150.704,55.3454545 149.780364,56.0610909 149.780364,57.712 Z M155.029818,57.712 C155.029818,60.128 153.508364,61.2712727 151.748364,61.2712727 C149.988364,61.2712727 148.466909,60.128 148.466909,57.712 C148.466909,55.296 149.988364,54.1527273 151.748364,54.1527273 C153.508364,54.1527273 155.029818,55.296 155.029818,57.712 Z" id="Fill-11" fill="#FFFFFE"></path>
            <polyline id="Fill-12" fill="#FFFFFE" points="156.408727 54.2312727 157.860364 54.2312727 159.501091 58.5774545 161.141818 54.2312727 162.593455 54.2312727 162.593455 61.1912727 161.301818 61.1912727 161.301818 56.896 159.969455 60.5556364 159.034182 60.5556364 157.701818 56.896 157.701818 61.1912727 156.408727 61.1912727 156.408727 54.2312727"></polyline>
            <path d="M167.512727,56.3490909 C167.512727,55.7134545 167.165091,55.4254545 166.597818,55.4254545 L165.314909,55.4254545 L165.314909,57.2741818 L166.597818,57.2741818 C167.165091,57.2741818 167.512727,56.9861818 167.512727,56.3490909 Z M165.314909,58.4669091 L165.314909,61.1912727 L164.023273,61.1912727 L164.023273,54.2312727 L166.647273,54.2312727 C168.119273,54.2312727 168.824727,55.136 168.824727,56.3490909 C168.824727,57.5621818 168.119273,58.4669091 166.647273,58.4669091 L165.314909,58.4669091 Z" id="Fill-13" fill="#FFFFFE"></path>
            <path d="M170.887273,58.3578182 L172.359273,58.3578182 L171.623273,55.9418182 L170.887273,58.3578182 Z M172.727273,59.552 L170.519273,59.552 L170.013091,61.1912727 L168.621091,61.1912727 L170.977455,54.2312727 L172.270545,54.2312727 L174.626909,61.1912727 L173.234909,61.1912727 L172.727273,59.552 Z" id="Fill-14" fill="#FFFFFE"></path>
            <polyline id="Fill-15" fill="#FFFFFE" points="180.706909 54.2312727 180.706909 61.1912727 179.345455 61.1912727 176.789818 56.5978182 176.789818 61.1912727 175.496727 61.1912727 175.496727 54.2312727 176.859636 54.2312727 179.415273 58.8261818 179.415273 54.2312727 180.706909 54.2312727"></polyline>
            <polyline id="Fill-16" fill="#FFFFFE" points="182.661818 54.2312727 183.924364 56.9367273 185.186909 54.2312727 186.578909 54.2312727 184.571636 58.2283636 184.571636 61.1912727 183.278545 61.1912727 183.278545 58.2283636 181.269818 54.2312727 182.661818 54.2312727"></polyline>
            <path d="M30.6894545,50.3069091 C16.2676364,46.0916364 2.74472727,34.7156364 3.40945455,25.2858182 C4.00872727,16.7098182 13.9141818,12.5716364 25.8269091,13.2698182 C10.992,10.7767273 0.375272727,16.6981818 0.133818182,26.2821818 C-0.141090909,37.1301818 14.9149091,50.7083636 30.6952727,55.6989091 L30.6894545,50.3069091" id="Fill-18" fill="#0A0B09"></path>
            <path d="M30.8232727,41.9098182 C30.8232727,41.9098182 21.4487273,37.0734545 17.8050909,34.1890909 C20.2021818,35.5229091 30.8232727,39.8734545 30.8232727,39.8734545 L30.8232727,38.0989091 C30.8232727,38.0989091 22.1570909,33.7905455 17.3614545,30.1512727 C23.6218182,33.3018182 30.8232727,36.0087273 30.8232727,36.0087273 L30.8174545,34.1047273 C30.8174545,34.1047273 23.6218182,31.1301818 17.1418182,26.5105455 C24.8218182,30.2850909 30.8174545,31.7963636 30.8174545,31.7963636 L30.8174545,30 C16.3898182,25.7818182 7.59272727,16.9323636 6.64,10.5614545 C5.392,2.16436364 14.0378182,0.464 25.9490909,1.16218182 C11.1141818,-1.33090909 0,0.786909091 0,13.5752727 C0,24.4261818 15.0414545,38.1774545 30.8232727,43.1578182 L30.8232727,41.9098182" id="Fill-19" fill="#4BB061"></path>
            <path d="M30.8727273,8.48727273 C45.3032727,12.7069091 58.8203636,24.0814545 58.1556364,33.5083636 C57.5549091,42.0887273 47.6581818,46.2210909 35.7381818,45.5287273 C50.5803636,48.0174545 61.1912727,42.1003636 61.4341818,32.512 C61.7076364,21.6654545 46.6501818,8.08581818 30.8698182,3.10109091 L30.8727273,8.48727273" id="Fill-21" fill="#0A0B09"></path>
            <path d="M30.7490909,16.8858182 C30.7490909,16.8858182 40.1207273,21.7221818 43.76,24.6065455 C41.3629091,23.2698182 30.7490909,18.9265455 30.7490909,18.9265455 L30.7490909,20.7010909 C30.7490909,20.7010909 39.4065455,25.0065455 44.1992727,28.6443636 C37.9418182,25.4923636 30.7490909,22.7825455 30.7490909,22.7825455 L30.7490909,24.6952727 C30.7490909,24.6952727 37.9418182,27.6683636 44.4247273,32.2836364 C36.7461818,28.5134545 30.7490909,27.0036364 30.7490909,27.0036364 L30.7490909,28.7985455 C45.1752727,33.0167273 53.9723636,41.8676364 54.9221818,48.2327273 C56.1745455,56.6312727 47.5272727,58.3316364 35.6174545,57.632 C50.4538182,60.1221818 61.5650909,58.0145455 61.5650909,45.2203636 C61.5650909,34.3723636 46.5192727,20.6196364 30.7490909,15.6334545 L30.7490909,16.8858182" id="Fill-22" fill="#4BB061"></path>
            <polyline id="Fill-23" fill="#0A0B09" points="79.3192727 15.3512727 91.7294545 34.5294545 91.7294545 15.3512727 95.5650909 15.3512727 95.5650909 41.3730909 91.9927273 41.3730909 79.3192727 22.3825455 79.3192727 41.3730909 75.4850909 41.3730909 75.4850909 15.3512727 79.3192727 15.3512727"></polyline>
            <path d="M108.049455,24.2254545 C106.670545,24.2254545 105.530182,24.7214545 104.628364,25.712 C103.726545,26.7025455 103.173818,28.1250909 102.973091,29.9796364 L113.089455,29.9796364 C112.887273,28.0741818 112.337455,26.64 111.434182,25.6741818 C110.530909,24.7083636 109.403636,24.2254545 108.049455,24.2254545 Z M102.973091,32.6487273 C103.072,33.6770909 103.287273,34.5672727 103.611636,35.3192727 C103.937455,36.0712727 104.344727,36.6923636 104.834909,37.1810909 C105.323636,37.6712727 105.874909,38.0349091 106.488727,38.272 C107.104,38.5105455 107.735273,38.6298182 108.388364,38.6298182 C109.367273,38.6298182 110.224,38.4029091 110.964364,37.952 C111.703273,37.4996364 112.299636,36.9483636 112.750545,36.2967273 L115.12,38.3650909 C114.843636,38.7418182 114.498909,39.136 114.085818,39.5505455 C113.671273,39.9650909 113.182545,40.3403636 112.619636,40.6792727 C112.055273,41.0167273 111.409455,41.2989091 110.682182,41.5243636 C109.954909,41.7498182 109.140364,41.8632727 108.238545,41.8632727 C107.060364,41.8632727 105.944727,41.6436364 104.890182,41.2043636 C103.838545,40.7665455 102.923636,40.1076364 102.146909,39.2305455 C101.367273,38.3534545 100.754909,37.2552727 100.304,35.9403636 C99.8516364,34.624 99.6261818,33.088 99.6261818,31.3338182 C99.6261818,29.6785455 99.8327273,28.2065455 100.247273,26.9149091 C100.660364,25.6247273 101.237818,24.5396364 101.976727,23.6625455 C102.715636,22.7854545 103.6,22.1207273 104.628364,21.6698182 C105.656727,21.2189091 106.784,20.992 108.013091,20.992 C109.240727,20.992 110.368,21.2189091 111.396364,21.6698182 C112.424727,22.1207273 113.314909,22.7854545 114.066909,23.6625455 C114.817455,24.5396364 115.402182,25.6247273 115.815273,26.9149091 C116.228364,28.2065455 116.436364,29.6785455 116.436364,31.3338182 C116.436364,31.584 116.429091,31.8167273 116.417455,32.0290909 C116.402909,32.2429091 116.385455,32.4494545 116.360727,32.6487273 L102.973091,32.6487273 Z" id="Fill-24" fill="#0A0B09"></path>
            <polyline id="Fill-25" fill="#0A0B09" points="120.722909 21.4807273 124.145455 35.4705455 128.394182 21.4807273 131.252364 21.4807273 135.425455 35.4705455 138.923636 21.4807273 142.270545 21.4807273 137.268364 41.3730909 134.148364 41.3730909 129.786182 26.9716364 125.348364 41.3730909 122.226909 41.3730909 117.338182 21.4807273 120.722909 21.4807273"></polyline>
            <path d="M151.784727,38.6661818 C152.586182,38.6661818 153.421091,38.5672727 154.285091,38.3650909 C155.150545,38.1643636 155.946182,37.8763636 156.673455,37.4996364 L156.673455,31.9723636 C155.995636,31.7221818 155.275636,31.5345455 154.512,31.408 C153.745455,31.2829091 153.012364,31.2203636 152.311273,31.2203636 C150.881455,31.2203636 149.678545,31.5272727 148.699636,32.1410909 C147.723636,32.7563636 147.234909,33.728 147.234909,35.0574545 C147.234909,35.7090909 147.352727,36.2603636 147.591273,36.7112727 C147.829818,37.1621818 148.154182,37.5330909 148.570182,37.8210909 C148.983273,38.1090909 149.464727,38.3214545 150.017455,38.4596364 C150.568727,38.5978182 151.157818,38.6661818 151.784727,38.6661818 Z M145.354182,23.0981818 C146.081455,22.5469091 147.032727,22.0581818 148.212364,21.6305455 C149.389091,21.2043636 150.807273,20.992 152.461091,20.992 C153.589818,20.992 154.624,21.1243636 155.563636,21.3876364 C156.504727,21.6494545 157.317818,22.0829091 158.008727,22.6850909 C158.698182,23.2858182 159.230545,24.0829091 159.607273,25.072 C159.982545,26.064 160.170182,27.2843636 160.170182,28.7389091 L160.170182,41.3730909 L156.861091,41.3730909 L156.861091,39.9447273 C155.156364,41.072 153.2,41.6378182 150.994909,41.6378182 C149.991273,41.6378182 149.058909,41.5112727 148.193455,41.2610909 C147.328,41.0109091 146.576,40.6225455 145.936,40.096 C145.297455,39.568 144.789818,38.9047273 144.413091,38.1018182 C144.036364,37.3018182 143.848727,36.3476364 143.848727,35.2450909 C143.848727,34.1658182 144.036364,33.2087273 144.413091,32.368 C144.789818,31.5272727 145.314909,30.832 145.992727,30.2807273 C146.670545,29.7294545 147.472,29.3090909 148.398545,29.0210909 C149.326545,28.7330909 150.341818,28.5876364 151.445818,28.5876364 C152.322909,28.5876364 153.213091,28.6763636 154.114909,28.8523636 C155.018182,29.0269091 155.870545,29.2901818 156.673455,29.6407273 L156.673455,28.9643636 C156.673455,28.0872727 156.567273,27.3541818 156.353455,26.7650909 C156.141091,26.176 155.832727,25.7047273 155.431273,25.3541818 C155.031273,25.0036364 154.541091,24.7534545 153.966545,24.6021818 C153.387636,24.4523636 152.749091,24.3767273 152.046545,24.3767273 C150.994909,24.3767273 150.034909,24.5149091 149.170909,24.7898182 C148.305455,25.0661818 147.509818,25.4545455 146.782545,25.9563636 L145.354182,23.0981818 Z" id="Fill-26" fill="#0A0B09"></path>
            <path d="M176.266182,25.3541818 C175.912727,25.0036364 175.499636,24.7534545 175.024,24.6021818 C174.546909,24.4523636 174.008727,24.3767273 173.406545,24.3767273 C172.379636,24.3767273 171.457455,24.6210909 170.642909,25.1098182 C169.828364,25.5985455 169.131636,26.5454545 168.555636,27.9490909 L168.555636,41.3730909 L164.983273,41.3730909 L164.983273,21.4807273 L168.368,21.4807273 L168.368,23.888 C169.796364,21.9578182 171.701818,20.992 174.084364,20.992 C174.961455,20.992 175.675636,21.1112727 176.226909,21.3483636 C176.778182,21.5883636 177.230545,21.8690909 177.581091,22.1949091 L176.266182,25.3541818" id="Fill-27" fill="#0A0B09"></path>
            <polyline id="Fill-28" fill="#0A0B09" points="196.420364 21.4807273 189.538909 29.3032727 197.511273 41.3730909 193.637818 41.3730909 187.319273 31.8589091 183.936 35.696 183.936 41.3730909 180.363636 41.3730909 180.363636 14.7869091 183.936 13.584 183.936 31.3338182 192.546909 21.4807273 196.420364 21.4807273"></polyline>
            <path d="M200.041667,17.2883333 L200.293333,17.2883333 C200.588333,17.2883333 200.825,17.19 200.825,16.9516667 C200.825,16.7416667 200.671667,16.6016667 200.335,16.6016667 C200.193333,16.6016667 200.096667,16.615 200.041667,16.63 L200.041667,17.2883333 Z M200.026667,18.5916667 L199.493333,18.5916667 L199.493333,16.2933333 C199.703333,16.25 199.998333,16.2233333 200.378333,16.2233333 C200.811667,16.2233333 201.008333,16.2933333 201.175,16.3916667 C201.301667,16.4883333 201.4,16.6716667 201.4,16.895 C201.4,17.1483333 201.203333,17.3433333 200.923333,17.4283333 L200.923333,17.4566667 C201.148333,17.54 201.275,17.7083333 201.345,18.0166667 C201.415,18.3666667 201.455,18.5083333 201.511667,18.5916667 L200.938333,18.5916667 C200.868333,18.5083333 200.825,18.2966667 200.755,18.03 C200.713333,17.7783333 200.573333,17.6666667 200.278333,17.6666667 L200.026667,17.6666667 L200.026667,18.5916667 Z M198.61,17.3866667 C198.61,18.41 199.366667,19.2233333 200.403333,19.2233333 C201.415,19.2233333 202.158333,18.41 202.158333,17.4 C202.158333,16.3766667 201.415,15.55 200.391667,15.55 C199.366667,15.55 198.61,16.3766667 198.61,17.3866667 Z M202.746667,17.3866667 C202.746667,18.69 201.721667,19.7133333 200.391667,19.7133333 C199.075,19.7133333 198.023333,18.69 198.023333,17.3866667 C198.023333,16.11 199.075,15.0866667 200.391667,15.0866667 C201.721667,15.0866667 202.746667,16.11 202.746667,17.3866667 Z" id="Fill-29" fill="#1B1A19"></path>
        </g>
    </g>
</svg>